<svg xmlns="http://www.w3.org/2000/svg" width="150" height="150" viewBox="0 0 73 73" shape-rendering="crispEdges"><path fill="#ffffff" d="M0 0h73v73H0z"/><path stroke="#000000" d="M20 20.5h7m2 0h4m1 0h3m1 0h2m3 0h1m2 0h7M20 21.5h1m5 0h1m1 0h1m1 0h2m2 0h4m2 0h1m1 0h2m2 0h1m5 0h1M20 22.5h1m1 0h3m1 0h1m1 0h1m3 0h1m5 0h3m1 0h1m1 0h1m1 0h1m1 0h3m1 0h1M20 23.5h1m1 0h3m1 0h1m3 0h1m3 0h1m3 0h2m1 0h1m1 0h2m1 0h1m1 0h3m1 0h1M20 24.5h1m1 0h3m1 0h1m4 0h2m2 0h2m1 0h1m5 0h1m1 0h1m1 0h3m1 0h1M20 25.5h1m5 0h1m2 0h4m2 0h1m1 0h2m5 0h1m1 0h1m5 0h1M20 26.5h7m1 0h1m1 0h1m1 0h1m1 0h1m1 0h1m1 0h1m1 0h1m1 0h1m1 0h1m1 0h7M30 27.5h2m1 0h1m1 0h1m1 0h1m1 0h1m2 0h3M21 28.5h3m1 0h2m2 0h1m2 0h1m3 0h3m2 0h1m1 0h1m6 0h2M20 29.5h1m3 0h2m2 0h1m3 0h3m1 0h2m1 0h2m2 0h1m2 0h2m1 0h2m1 0h1M20 30.5h1m1 0h1m2 0h4m1 0h3m1 0h1m1 0h1m1 0h1m2 0h3m2 0h4m2 0h1M21 31.5h3m1 0h1m2 0h4m1 0h2m2 0h1m1 0h1m1 0h5m1 0h1m1 0h1m1 0h2M21 32.5h1m4 0h1m1 0h1m4 0h1m5 0h7m2 0h2m2 0h1M21 33.5h3m3 0h1m2 0h6m1 0h1m2 0h2m2 0h1m2 0h1m2 0h2M22 34.5h2m1 0h3m6 0h1m2 0h1m1 0h2m1 0h1m3 0h5M22 35.5h1m1 0h2m3 0h6m3 0h1m2 0h2m2 0h3m1 0h2M20 36.5h2m2 0h1m1 0h1m2 0h1m1 0h1m1 0h6m1 0h4m1 0h2m1 0h3M20 37.5h1m2 0h2m2 0h2m5 0h2m2 0h1m1 0h1m2 0h1m2 0h1m1 0h2m2 0h1M20 38.5h1m1 0h5m1 0h7m5 0h2m3 0h1m1 0h2m1 0h2M28 39.5h2m2 0h1m2 0h1m2 0h1m1 0h1m1 0h1m1 0h3m1 0h1m2 0h2M26 40.5h3m2 0h1m3 0h1m1 0h1m1 0h1m2 0h1m1 0h2m3 0h4M20 41.5h1m1 0h3m2 0h1m1 0h1m3 0h1m1 0h4m1 0h1m1 0h2m2 0h1m2 0h2m1 0h1M22 42.5h2m1 0h2m1 0h2m1 0h1m2 0h3m2 0h2m2 0h1m1 0h4m2 0h2M21 43.5h3m1 0h1m5 0h3m1 0h4m1 0h1m5 0h1m1 0h2M20 44.5h1m1 0h1m1 0h1m1 0h2m2 0h1m2 0h2m4 0h1m2 0h8m1 0h1M28 45.5h2m1 0h2m1 0h3m1 0h2m1 0h2m1 0h1m3 0h2m1 0h1M20 46.5h7m7 0h1m1 0h2m1 0h3m1 0h2m1 0h1m1 0h1M20 47.5h1m5 0h1m1 0h1m3 0h2m2 0h2m2 0h1m2 0h2m3 0h3M20 48.5h1m1 0h3m1 0h1m7 0h1m3 0h2m2 0h7m1 0h1M20 49.5h1m1 0h3m1 0h1m1 0h1m1 0h2m1 0h2m1 0h2m1 0h1m2 0h3m2 0h1m3 0h2M20 50.5h1m1 0h3m1 0h1m1 0h3m1 0h3m1 0h1m3 0h8m1 0h1M20 51.5h1m5 0h1m1 0h1m1 0h6m1 0h2m1 0h1m1 0h4m1 0h2m3 0h1M20 52.5h7m2 0h2m4 0h1m1 0h1m1 0h1m1 0h1m1 0h1m1 0h2m1 0h1m1 0h1"/></svg>
